<svg width="20" height="20" viewBox="0 0 20 20" fill="none" xmlns="http://www.w3.org/2000/svg">
<g clip-path="url(#clip0_2685_77086)">
<path d="M10.0262 1.49162e-07C10.7251 -0.000224089 11.4004 0.252385 11.9276 0.711193C12.4547 1.17 12.7981 1.80403 12.8943 2.49623C12.9905 3.18844 12.8331 3.89207 12.451 4.47725C12.069 5.06244 11.4881 5.48965 10.8157 5.68002V9.73687C10.8157 9.94625 10.7325 10.1471 10.5844 10.2951C10.4364 10.4432 10.2356 10.5264 10.0262 10.5264C9.81683 10.5264 9.61602 10.4432 9.46795 10.2951C9.31991 10.1471 9.23672 9.94625 9.23672 9.73687V5.68002C8.56579 5.48818 7.98671 5.06053 7.60599 4.47573C7.22526 3.89091 7.06851 3.18831 7.16458 2.49712C7.26064 1.80596 7.60307 1.17272 8.12884 0.713915C8.65461 0.255107 9.3284 0.0015896 10.0262 1.49162e-07ZM11.342 2.89475C11.342 2.54578 11.2034 2.21111 10.9566 1.96434C10.7099 1.71758 10.3752 1.57895 10.0262 1.57895C9.67724 1.57895 9.34256 1.71758 9.0958 1.96434C8.84904 2.21111 8.71041 2.54578 8.71041 2.89475C8.71041 3.24372 8.84904 3.5784 9.0958 3.82516C9.34256 4.07192 9.67724 4.21053 10.0262 4.21053C10.3752 4.21053 10.7099 4.07192 10.9566 3.82516C11.2034 3.5784 11.342 3.24372 11.342 2.89475ZM19.4999 4.73685C19.4999 4.03891 19.2226 3.36956 18.7291 2.87604C18.2356 2.38253 17.5662 2.10527 16.8683 2.10527C16.1704 2.10527 15.501 2.38253 15.0075 2.87604C14.514 3.36956 14.2367 4.03891 14.2367 4.73685V8.42108H11.8683V10H15.8157V4.73685C15.8157 4.45767 15.9266 4.18994 16.124 3.99253C16.3214 3.79512 16.5892 3.68422 16.8683 3.68422C17.1476 3.68422 17.4152 3.79512 17.6127 3.99253C17.8101 4.18994 17.921 4.45767 17.921 4.73685V17.3685C17.921 17.6476 17.8101 17.9154 17.6127 18.1128C17.4152 18.3101 17.1476 18.4211 16.8683 18.4211C16.5892 18.4211 16.3214 18.3101 16.124 18.1128C15.9266 17.9154 15.8157 17.6476 15.8157 17.3685V12.1053H11.0788V17.3685C11.0788 17.6476 10.9679 17.9154 10.7705 18.1128C10.5731 18.3101 10.3054 18.4211 10.0262 18.4211C9.74703 18.4211 9.47928 18.3101 9.28189 18.1128C9.08447 17.9154 8.97357 17.6476 8.97357 17.3685V12.1053H2.65776C2.51817 12.1053 2.3843 12.0499 2.28559 11.9512C2.18689 11.8524 2.13144 11.7186 2.13144 11.579V4.73685C2.13144 4.45767 2.24234 4.18994 2.43975 3.99253C2.63716 3.79512 2.9049 3.68422 3.18408 3.68422C3.46325 3.68422 3.731 3.79512 3.9284 3.99253C4.12581 4.18994 4.23671 4.45767 4.23671 4.73685V10H8.18409V8.42108H5.81566V4.73685C5.81566 4.03891 5.53841 3.36956 5.04489 2.87604C4.55137 2.38253 3.88202 2.10527 3.18408 2.10527C2.48613 2.10527 1.81678 2.38253 1.32326 2.87604C0.829744 3.36956 0.55249 4.03891 0.55249 4.73685V11.579C0.55249 12.1373 0.774295 12.6728 1.16911 13.0676C1.56392 13.4625 2.09941 13.6842 2.65776 13.6842H7.39463V17.3685C7.39463 18.0664 7.67187 18.7357 8.16539 19.2293C8.65892 19.7228 9.32827 20 10.0262 20C10.7241 20 11.3935 19.7228 11.887 19.2293C12.3805 18.7357 12.6578 18.0664 12.6578 17.3685V13.6842H14.2367V17.3685C14.2367 18.0664 14.514 18.7357 15.0075 19.2293C15.501 19.7228 16.1704 20 16.8683 20C17.5662 20 18.2356 19.7228 18.7291 19.2293C19.2226 18.7357 19.4999 18.0664 19.4999 17.3685V4.73685Z" fill="#727272"/>
</g>
<defs>
<clipPath id="clip0_2685_77086">
<rect width="18.9475" height="20" fill="white" transform="translate(0.55249)"/>
</clipPath>
</defs>
</svg>
