<svg width="24" height="22" viewBox="0 0 24 22" fill="none" xmlns="http://www.w3.org/2000/svg">
<path d="M5.80542 1.02311C5.40886 1.09149 5.08066 1.30117 4.59748 1.7889C4.20548 2.19003 4.15989 2.25383 4.15989 2.40426C4.15989 2.62306 4.28753 2.75068 4.50632 2.75068C4.65674 2.75068 4.72056 2.7051 5.11257 2.32222C5.57295 1.8755 5.67323 1.80257 5.93761 1.74332C6.21566 1.6795 6.47092 1.77522 6.95409 2.12165L7.40536 2.44529L4.58837 5.26228C3.03857 6.81207 1.7577 8.06559 1.73946 8.04736C1.62095 7.91518 1.19247 7.30437 1.13322 7.18586C1.03295 6.98985 1.04206 6.6024 1.1469 6.37448C1.2016 6.25597 1.703 5.72266 2.55995 4.87027C3.79979 3.63499 3.8864 3.53927 3.8864 3.38884C3.8864 3.13814 3.78155 3.02418 3.55365 3.02418C3.3622 3.02418 3.35309 3.02874 1.98561 4.40077C0.340089 6.05542 0.353763 6.03718 0.353763 6.78473C0.353763 7.25423 0.362881 7.30437 0.490511 7.54596C0.568001 7.68726 1.00559 8.3163 1.47054 8.94534C2.35938 10.1487 2.43688 10.2262 2.69214 10.1305C2.76051 10.1031 2.93373 9.96638 3.07959 9.82507L3.33941 9.56526L3.50807 9.73391L3.67672 9.90256L3.4397 10.1487C2.55084 11.0923 2.18618 12.4779 2.5007 13.736C2.61009 14.1782 2.97475 14.8983 3.27103 15.2539C3.74965 15.8237 4.51087 16.316 5.17638 16.4892C5.3268 16.5257 5.44987 16.5621 5.45444 16.5712C5.45899 16.5803 5.50913 16.7262 5.56383 16.904C5.61853 17.0772 5.7416 17.3553 5.83277 17.5148C6.06979 17.9114 6.61223 18.4128 7.02247 18.6133L7.35066 18.773V19.4794C7.35066 20.1312 7.35978 20.2042 7.46006 20.423C7.70621 20.9471 8.35803 21.1523 8.88223 20.8788C9.02353 20.8058 9.35629 20.4549 9.35629 20.382C9.35629 20.3637 9.45201 20.3455 9.57508 20.3455C9.7802 20.3455 9.79843 20.3546 9.94886 20.5597C10.1722 20.8606 10.4275 20.9928 10.7876 20.9928C11.1887 20.9973 11.5397 20.7967 11.7083 20.4686C11.7676 20.3591 11.7995 20.3455 12.0001 20.3455C12.2007 20.3455 12.2325 20.3591 12.2918 20.4686C12.4604 20.7967 12.8114 20.9928 13.2126 20.9928C13.5727 20.9973 13.8279 20.8606 14.0513 20.5597C14.2017 20.3591 14.2199 20.3455 14.425 20.3455C14.6029 20.3455 14.6484 20.3637 14.694 20.4504C15.0769 21.1934 16.189 21.175 16.54 20.423C16.6495 20.186 16.6495 20.1723 16.6495 18.7501V17.3096L16.964 17.2322C17.2785 17.1501 17.7115 16.9222 17.9257 16.7262C18.0032 16.6533 18.1218 16.6123 18.2904 16.5895C18.7052 16.5439 19.0653 16.4345 19.5029 16.2157C19.9907 15.9787 20.0864 15.8875 20.0864 15.6687C20.0864 15.3452 19.7947 15.2175 19.4756 15.3998C19.2067 15.5547 18.9013 15.696 18.7509 15.7417L18.6278 15.7735L18.7234 15.4181C18.8146 15.0625 18.8146 15.0625 19.0881 14.8847C20.0591 14.2557 20.4784 13.0843 20.1137 11.9994C20.0044 11.6757 19.6761 11.1561 19.4756 10.9874L19.348 10.878L19.5759 10.6547L19.8038 10.4313L20.0773 10.7276C20.4237 11.1014 20.7155 11.694 20.8248 12.2318C20.957 12.9019 20.8385 13.6403 20.4967 14.2739C20.3143 14.6112 20.2961 14.83 20.4419 14.9667C20.6835 15.1901 20.9479 15.0397 21.1986 14.5337C21.9233 13.0614 21.6727 11.3293 20.5604 10.1487L20.3234 9.90256L20.492 9.73391L20.6607 9.56526L20.9205 9.82507C21.0664 9.96638 21.2397 10.1031 21.308 10.1305C21.5632 10.2262 21.6407 10.1487 22.5296 8.94534C22.9946 8.3163 23.4367 7.68271 23.5096 7.54139C23.6373 7.30437 23.6464 7.25423 23.6464 6.78473C23.6464 6.32434 23.6373 6.26509 23.5187 6.03261C23.3272 5.66795 19.0745 1.40145 18.7007 1.20544C18.2403 0.959298 17.6523 0.936506 17.1873 1.14619C16.9001 1.27382 14.6347 2.96036 14.5618 3.09711C14.4661 3.27488 14.5299 3.41619 14.8399 3.73982L15.1179 4.03155L13.9601 5.18935L12.7978 6.35169H12.0001H11.2024L10.04 5.18935L8.88223 4.03155L9.16028 3.73982C9.47024 3.41619 9.53406 3.27488 9.43834 3.09711C9.35173 2.93301 7.01791 1.22368 6.73529 1.11428C6.43902 1.00488 6.11082 0.972972 5.80542 1.02311ZM18.336 1.8436C18.5776 1.96667 22.7849 6.20128 22.8715 6.4064C22.9626 6.62974 22.958 7.00353 22.8669 7.18586C22.8076 7.30437 22.3791 7.91518 22.2607 8.04736C22.2424 8.06559 20.9616 6.81207 19.4118 5.26228L16.5948 2.44529L17.046 2.1171C17.6431 1.69317 17.9257 1.63392 18.336 1.8436ZM8.46743 3.23386C8.55404 3.29767 8.40818 3.4481 5.59119 6.26509L2.62377 9.2325L2.41409 8.96813L2.20441 8.69919L5.10345 5.79559L8.00705 2.89199L8.18938 3.02874C8.29421 3.10168 8.41729 3.19284 8.46743 3.23386ZM21.586 8.96356L21.3764 9.2325L18.4226 6.27876C16.7954 4.65147 15.4644 3.31135 15.4644 3.29767C15.4689 3.28401 15.5828 3.18827 15.7287 3.08344L15.9886 2.89199L18.8922 5.79103L21.7957 8.69007L21.586 8.96356ZM9.43834 5.63605L10.4958 6.69356L8.24864 8.94077L6.00598 11.1834L4.9348 10.1122L3.86361 9.04106L4.10063 8.80402L4.34222 8.567L4.85731 9.07296C5.43165 9.64274 5.64132 9.76581 6.01965 9.77038C6.60311 9.77038 7.03158 9.35101 7.03158 8.76756C7.03158 8.38011 6.90851 8.17499 6.33873 7.5961L5.82821 7.08101L6.11994 6.78473L6.41623 6.48844L6.96321 7.03543C7.55122 7.61889 7.71076 7.71917 8.07998 7.71917C8.47654 7.71917 8.8412 7.49581 8.99618 7.14939C9.10103 6.92603 9.11014 6.50212 9.01442 6.27421C8.97339 6.18304 8.70902 5.86852 8.41273 5.56768L7.87941 5.02981L8.10277 4.8019C8.22585 4.67426 8.33979 4.57398 8.35347 4.57398C8.36715 4.57398 8.85488 5.0526 9.43834 5.63605ZM15.8973 4.8019L16.1208 5.02981L15.5874 5.56768C15.2911 5.86852 15.0268 6.18304 14.9857 6.27421C14.89 6.50212 14.8991 6.92603 15.0039 7.14939C15.1589 7.49581 15.5235 7.71917 15.9202 7.71917C16.2894 7.71917 16.4489 7.61889 17.0369 7.03543L17.584 6.48844L17.8802 6.78473L18.172 7.08101L17.666 7.59154C17.0825 8.18867 16.9685 8.37556 16.9685 8.75389C16.9731 9.35101 17.3879 9.77038 17.9805 9.77038C18.3542 9.76581 18.5594 9.64274 19.1383 9.07752L19.6625 8.567L19.8995 8.80402L20.1366 9.04106L19.0653 10.1122L17.9941 11.1834L15.7514 8.94077L13.5043 6.69356L14.5618 5.63605C15.1452 5.0526 15.633 4.57398 15.6467 4.57398C15.6603 4.57398 15.7743 4.67426 15.8973 4.8019ZM7.86574 6.07364C8.27599 6.48388 8.35347 6.58873 8.35347 6.70724C8.35347 6.86222 8.22128 6.98985 8.05719 6.98985C8.00249 6.98985 7.76547 6.78928 7.4555 6.47933L6.94043 5.96881L7.13187 5.7728C7.2367 5.6634 7.33699 5.5768 7.35066 5.5768C7.36434 5.5768 7.59681 5.80015 7.86574 6.07364ZM16.8683 5.7728L17.0597 5.96881L16.5446 6.47933C16.2347 6.78928 15.9977 6.98985 15.9429 6.98985C15.7789 6.98985 15.6467 6.86222 15.6467 6.70724C15.6467 6.58873 15.7241 6.48388 16.1344 6.07364C16.4033 5.80015 16.6358 5.5768 16.6495 5.5768C16.6631 5.5768 16.7634 5.6634 16.8683 5.7728ZM15.2 9.43762L17.5611 11.7988L17.4472 12.1407C17.3879 12.3276 17.315 12.4779 17.2922 12.4688C17.2648 12.4643 16.303 11.7806 15.1543 10.951C14.0103 10.1168 12.9391 9.37381 12.775 9.29632C12.5015 9.16413 12.4422 9.15502 11.9955 9.15502C11.5306 9.15502 11.5032 9.15957 11.1659 9.32822C10.8377 9.49232 10.6827 9.62908 8.89591 11.3794C7.8384 12.4141 6.96322 13.262 6.94498 13.2711C6.92675 13.2756 6.80368 12.9475 6.67604 12.5418L6.43902 11.7988L8.80019 9.43762L11.1568 7.08101H12.0001H12.8434L15.2 9.43762ZM5.81453 8.12485C6.33873 8.65361 6.39344 8.76756 6.21111 8.94989C6.04244 9.11855 5.94672 9.06841 5.40429 8.53054L4.88921 8.02001L5.08066 7.82401C5.1855 7.71461 5.28578 7.628 5.29946 7.628C5.31312 7.628 5.5456 7.85136 5.81453 8.12485ZM18.9195 7.82401L19.111 8.02001L18.5958 8.53054C18.2859 8.84049 18.0489 9.04106 17.9941 9.04106C17.8301 9.04106 17.6978 8.91342 17.6978 8.75844C17.6978 8.63993 17.7753 8.5351 18.1856 8.12485C18.4546 7.85136 18.687 7.628 18.7007 7.628C18.7143 7.628 18.8146 7.71461 18.9195 7.82401ZM12.5288 9.98917C12.9163 10.1852 13.2308 10.682 13.2308 11.0923C13.2308 11.5709 12.8251 12.1133 12.3647 12.2501C12.0593 12.3412 11.9408 12.3412 11.6354 12.2501C11.1613 12.1088 10.7693 11.5709 10.7693 11.0649C10.7693 10.5909 11.1841 10.0621 11.6765 9.90256C11.8679 9.83875 12.3283 9.88889 12.5288 9.98917ZM4.4425 10.6683L4.65674 10.878L4.54279 10.9646C4.34678 11.1242 4.01403 11.6347 3.90008 11.9629C3.57644 12.9019 3.81347 13.9002 4.52 14.5702C4.80716 14.8392 5.32225 15.1491 5.48179 15.1491C5.51825 15.1491 5.52737 15.1855 5.50913 15.2494C5.4909 15.3086 5.46811 15.4545 5.44987 15.5731C5.42252 15.7827 5.41797 15.7919 5.30401 15.7644C5.08066 15.7098 4.62483 15.4681 4.34678 15.2585C3.42602 14.5702 2.95196 13.344 3.17531 12.2318C3.28016 11.7076 3.57644 11.1059 3.90919 10.7367C4.05049 10.5817 4.18268 10.4541 4.19636 10.4541C4.21003 10.4541 4.32399 10.5498 4.4425 10.6683ZM14.931 11.7076L15.8153 12.3458L15.6284 12.3959C15.0221 12.56 14.8033 12.7333 12.9118 14.5975L11.2935 16.1884L11.2662 15.7735C11.2115 15.026 10.9562 14.4653 10.432 13.9366C9.92607 13.4352 9.41098 13.1845 8.65887 13.0843L8.25775 13.0295L9.15117 12.1726C9.66624 11.6712 10.0491 11.3384 10.0583 11.3749C10.0674 11.4068 10.0993 11.5253 10.1312 11.6393C10.2634 12.1407 10.6827 12.6375 11.1568 12.8517C12.3647 13.4079 13.7231 12.6785 13.9281 11.3658C13.9556 11.1925 13.992 11.0512 14.0103 11.0558C14.0285 11.0649 14.4433 11.3566 14.931 11.7076ZM6.00598 12.8563C6.17008 13.3668 6.30227 13.8089 6.30227 13.8409C6.30227 13.8773 6.25669 13.9411 6.20654 13.9913C6.15184 14.0369 6.047 14.1645 5.97407 14.2694C5.90114 14.3787 5.80998 14.4653 5.76895 14.4653C5.61853 14.4653 5.14903 14.1645 4.9348 13.932C4.62483 13.5948 4.50632 13.2711 4.50632 12.7788C4.50176 12.437 4.52 12.3549 4.64762 12.086C4.72512 11.9219 4.87553 11.6985 4.98038 11.5937L5.17182 11.4022L5.44076 11.6666L5.70514 11.9355L6.00598 12.8563ZM19.1155 11.694C19.6716 12.4005 19.6397 13.3122 19.0334 13.9686C18.8922 14.119 18.7645 14.2238 18.7463 14.2056C18.728 14.1873 18.6779 14.0642 18.6323 13.9411C18.5321 13.6585 18.4135 13.4626 18.1674 13.1618L17.9805 12.9246L18.1354 12.4324C18.2813 11.9766 18.3133 11.9173 18.5503 11.6757C18.7873 11.4341 18.81 11.4205 18.9013 11.4797C18.9559 11.5162 19.0517 11.6119 19.1155 11.694ZM17.0233 13.2209C17.4107 13.4033 17.7115 13.7041 17.8939 14.0915C18.0261 14.3651 18.0398 14.438 18.0398 14.8072C18.0352 15.3725 17.9166 15.6687 17.5429 16.038C16.9685 16.6123 16.262 16.7491 15.5737 16.4299C14.4934 15.9239 14.1789 14.6158 14.9219 13.695C15.0997 13.4671 15.3322 13.3076 15.6785 13.1618C15.902 13.0659 16.0022 13.0523 16.3303 13.0614C16.654 13.0751 16.7679 13.0979 17.0233 13.2209ZM9.05545 13.9184C9.95797 14.2283 10.5414 15.0534 10.5414 16.0152C10.5414 17.0043 9.8577 17.8794 8.87767 18.1348C7.98881 18.3627 6.99968 17.9615 6.48916 17.1592C6.24301 16.7764 6.1564 16.4163 6.17464 15.9012C6.18831 15.4864 6.20654 15.4134 6.36152 15.0898C6.66236 14.4562 7.26862 13.964 7.92044 13.8318C8.23496 13.768 8.73181 13.8044 9.05545 13.9184ZM13.9145 15.6322C14.0148 15.9332 14.2153 16.2795 14.4068 16.4801L14.5254 16.6078L13.2263 16.6032H11.9317L12.8434 15.7189L13.755 14.8346L13.787 15.0944C13.8052 15.2357 13.8644 15.4773 13.9145 15.6322ZM12.1824 18.4766V19.6162H12.0001H11.8178V18.4766V17.3371H12.0001H12.1824V18.4766ZM13.5043 18.7C13.5043 19.9444 13.4952 20.072 13.4223 20.1632C13.3219 20.2862 13.1259 20.2953 13.0029 20.186C12.9163 20.1085 12.9118 20.0355 12.9118 18.7182V17.3371H13.208H13.5043V18.7ZM14.5527 18.4766V19.6162H14.3932H14.2336V18.4766V17.3371H14.3932H14.5527V18.4766ZM15.9202 18.7C15.9202 19.9306 15.9111 20.072 15.8427 20.154C15.7014 20.3182 15.5692 20.3227 15.4188 20.1678L15.282 20.0355V18.6863V17.3371H15.601H15.9202V18.7ZM11.0018 20.1769C10.8924 20.2862 10.701 20.2908 10.587 20.186C10.5004 20.1085 10.4958 20.0401 10.4958 19.0647V18.0299L10.783 17.7565L11.0656 17.4784L11.0793 18.7866C11.0884 20.0219 11.0839 20.0948 11.0018 20.1769ZM9.76653 19.092V19.6162H9.60699H9.44745V19.1695V18.7228L9.59787 18.6453C9.67537 18.6088 9.7483 18.5724 9.75741 18.5724C9.76196 18.5678 9.76653 18.8048 9.76653 19.092ZM8.71813 19.4839V20.0355L8.58139 20.1678C8.43097 20.3227 8.29878 20.3182 8.16203 20.154C8.09366 20.0765 8.07998 19.9717 8.07998 19.4976V18.9325H8.39906H8.71813V19.4839Z" fill="#5E5E5E" stroke="#C2C2C2" stroke-width="0.1"/>
<path d="M15.7789 13.9089C15.0586 14.2827 15.0632 15.3721 15.7834 15.7413C16.221 15.9647 16.6813 15.8963 17.0187 15.559C17.6887 14.889 17.2284 13.7812 16.2848 13.7812C16.0842 13.7812 15.9611 13.8132 15.7789 13.9089ZM16.5127 14.6018C16.5629 14.6519 16.6039 14.7431 16.6039 14.807C16.6039 14.9482 16.417 15.1488 16.2848 15.1488C16.1572 15.1488 15.9657 14.9528 15.9657 14.8252C15.9657 14.5653 16.3258 14.4149 16.5127 14.6018Z" fill="#5E5E5E" stroke="#C2C2C2" stroke-width="0.1"/>
<path d="M7.94323 15.0174C7.30963 15.2817 7.09996 16.1387 7.5421 16.6766C7.74722 16.9227 8.00248 17.0367 8.35347 17.0367C8.70901 17.0367 8.95972 16.9227 9.16484 16.6721C9.54773 16.2071 9.43833 15.4459 8.93692 15.1131C8.77739 15.0083 8.69078 14.99 8.40361 14.9809C8.21216 14.9718 8.00704 14.99 7.94323 15.0174ZM8.58139 15.7877C8.75459 15.961 8.64976 16.2527 8.38993 16.3165C8.29421 16.3347 8.23952 16.3165 8.15291 16.2253C7.93868 16.0157 8.05719 15.6965 8.35347 15.6965C8.43096 15.6965 8.53124 15.7376 8.58139 15.7877Z" fill="#5E5E5E" stroke="#C2C2C2" stroke-width="0.1"/>
</svg>
