<svg width="19" height="18" viewBox="0 0 19 18" fill="none" xmlns="http://www.w3.org/2000/svg">
<g clip-path="url(#clip0_2685_77106)">
<path d="M9.49999 0.65625C5.09737 0.65625 1.52856 4.28607 1.52856 8.76394C1.52856 13.2418 5.09737 16.8716 9.49999 16.8716C13.9026 16.8716 17.4715 13.2418 17.4715 8.76394C17.4715 4.28607 13.9026 0.65625 9.49999 0.65625ZM12.6886 9.57471L15.8277 9.57552C15.6501 11.0043 15.0102 12.3323 14.0091 13.3506C13.0077 14.3688 11.7019 15.0194 10.2971 15.1998V12.007C10.9314 12.007 11.5396 11.7508 11.9881 11.2946C12.4366 10.8385 12.6886 10.2198 12.6886 9.57471ZM3.17227 9.57552L6.31142 9.57471C6.31142 10.2198 6.56337 10.8385 7.01185 11.2946C7.46033 11.7508 8.06861 12.007 8.70285 12.007L8.70205 15.1998C7.29743 15.0193 5.99177 14.3685 4.99066 13.3504C3.98954 12.3321 3.34983 11.0042 3.17227 9.57552ZM9.49999 2.27779C11.0533 2.27782 12.5532 2.85439 13.7182 3.89933C14.8833 4.94427 15.6334 6.38571 15.8277 7.95317H12.6886C12.6886 7.73814 12.6046 7.53193 12.4551 7.37987C12.3056 7.22782 12.1028 7.14241 11.8914 7.14241H7.10856C6.89715 7.14241 6.6944 7.22782 6.54489 7.37987C6.3954 7.53193 6.31142 7.73814 6.31142 7.95317H3.17227C3.36661 6.38571 4.11668 4.94427 5.28172 3.89933C6.44675 2.85439 7.94667 2.27782 9.49999 2.27779Z" fill="#727272"/>
</g>
<defs>
<clipPath id="clip0_2685_77106">
<rect width="18" height="17" fill="white" transform="translate(0.5 0.5)"/>
</clipPath>
</defs>
</svg>
